<?xml version="1.0" ?><!DOCTYPE svg  PUBLIC '-//W3C//DTD SVG 1.1//EN'  'http://www.w3.org/Graphics/SVG/1.1/DTD/svg11.dtd'><svg enable-background="new 0 0 512 512" id="Layer_1" version="1.1" viewBox="0 0 512 512" xml:space="preserve" xmlns="http://www.w3.org/2000/svg" xmlns:xlink="http://www.w3.org/1999/xlink"><g><path d="M505.7,257.1c-4.2,100.7-48.3,177.4-138.3,224.4c-90.6,47.3-204.4,30.2-278.8-40.2   C38.6,394.1,12,335.9,8.8,267.1C3.1,142.9,90.2,32.2,212.3,10.5C293.4-4,365.4,17.3,425.8,73.3c50.2,46.5,76.1,104.9,79.3,173.3   C505.3,250.1,505.5,253.6,505.7,257.1z M257.3,25.8C133.1,25.3,29.6,126.4,28.1,254c-1.6,130.2,102.3,232.8,226.4,234.2   c125.9,1.4,230.7-100.6,231.4-229C486.5,129.6,384.4,25.8,257.3,25.8z" fill="#FE4704"/><path d="M197.8,282.5c-6.5-2.8-13-5.7-18.9-9.5c-14.5-9.2-26.4-20.7-32.3-37.4c-2.4-6.7-3.2-13.6-2.5-20.6   c0.2-2.6-0.2-4.4-2.6-6.3c-11.6-9.5-13.5-26.1-4.7-38.1c8.7-11.9,25.1-14.9,37.7-6.6c2.4,1.6,4,1.6,6.5,0.2   c20.1-11.7,42-17.2,65.1-18c3.8-0.1,5.5-1.2,6.6-4.9c4.6-15.3,9.5-30.4,14.3-45.6c1.8-5.6,2.9-6.2,8.7-4.9c12,2.8,24,5.4,35.9,8.4   c3.4,0.8,5.1,0.5,7.1-2.7c5.4-8.6,16.4-12.2,25.8-9.1c9.7,3.2,16.4,12.3,16.2,22.3c-0.2,10.1-7,19-16.7,21.9   c-13.2,3.9-26.9-4.8-29-18.5c-0.4-2.8-1.4-3.9-4.1-4.4c-10.9-2.4-21.7-5.1-32.5-7.6c-1.6-0.4-3-1.1-3.8,1.5   c-4.4,14.4-9.1,28.8-13.7,43.3c24.3,1.4,47.1,6.8,67.7,19.6c2.7,1.7,3.6-0.5,5.1-1.4c11.8-7.6,26.4-6,36,4.2   c9.1,9.6,10.8,25.4,2.1,35.1c-5.7,6.4-8,12.3-8.5,20.9c-1.2,18.8-12.3,32.5-26.8,43.7c-8.1,6.2-17,10.9-26.5,14.6   c0,1.1,0.7,1.4,1.5,1.8c29.8,18.3,32.9,65.2,5.8,87.3c-2.1,1.7-4.3,3.1-6.7,4.4c-9.3,5.1-9.4,5-12.6,15.9   c6.3,0.3,12.5,1.3,18.1,4.2c10.7,5.5,16.3,16.3,13.9,26.7c-0.8,3.6-2.6,5.4-6.5,5.4c-46.3-0.1-92.7-0.1-139,0   c-3.9,0-5.7-1.8-6.6-5.3c-2.5-10.1,3.2-21.2,13.8-26.7c5.6-2.9,11.6-4,18.1-4.2c-1.3-3.7-2.8-7.2-3.8-10.8   c-0.5-1.8-1.8-2.3-3.2-2.8c-17.4-6.7-26.7-20.2-29.6-37.8c-3.9-23.6,2.8-43.4,24-56.8C197.5,283.5,197.5,283.1,197.8,282.5z    M256.1,155.1c-17,0.2-31.1,1.9-44.9,6.1c-17.9,5.5-34.3,13.8-46.6,28.5c-14.9,17.9-15.2,39.2-0.9,57.6   c6.9,8.8,15.5,15.5,25.4,20.6c32.8,16.7,67.1,19,102.4,10.3c19.1-4.7,36.3-13,49.7-27.9c10.9-12.1,15.9-26.1,11.5-42.4   c-3.2-11.8-10.7-21-20.2-28.4C309.4,161.5,282.3,155.8,256.1,155.1z M301.8,319c-0.1-10.6-0.9-20-1.9-29.5c-0.3-2.6-1-3.6-3.7-2.6   c-2.5,0.9-5.1,1.5-7.7,2c-25.5,5.2-50.9,5.1-76.1-1.8c-2.6-0.7-4.2-1.2-4.7,2.8c-3.2,25.5-2.2,50.8,3.8,75.9   c3.8,15.9,9.6,31.1,20.3,43.9c4.9,5.9,10.4,10.1,18.8,8.8c3.6-0.5,7.3-0.3,11,0c3.4,0.2,6.1-1,8.6-3.2c7.4-6.3,12.6-14.2,16.7-22.8   C298,368.9,301.3,343.7,301.8,319z M310,294.4c2.3,25.2,1.1,49-4.5,73.6c12.7-7.5,18.7-18.2,20.3-31.2   C327.8,320.6,323.8,306.2,310,294.4z M196.5,296c-1.1-0.1-1.7,1.1-2.4,1.9c-17.3,16.8-16.3,50.2,2.1,65.8c1.2,1,2.5,3.1,4.1,2.1   c1.8-1.1,0.7-3.3,0.4-5c-2.9-14-4.2-28.2-4.1-42.6C196.5,310.9,196.5,303.5,196.5,296z M351.2,109.4c0-7.8-5.8-13.5-13.5-13.5   c-7.4,0-13.4,5.8-13.6,13.1c-0.2,7.3,6.1,13.8,13.5,13.9C345.1,123.1,351.2,117,351.2,109.4z M280.9,418.5c12.8,0,24.4-0.2,36,0.1   c5,0.1,4.7-1.9,3.3-5.3c-3.8-9.4-16.5-13.6-26.8-11c-0.7,0.2-1.4,0.9-1.8,1.6C288.7,408.7,285.4,413.2,280.9,418.5z M226.3,418.5   c-3.2-4.4-6.3-7.8-8.3-11.7c-2.2-4.4-5.5-5.3-9.7-5.2c-2.3,0.1-4.7,0.2-6.9,0.8c-6.7,1.9-12.2,5.4-14.3,12.5   c-0.5,1.7-1,3.6,2.2,3.6C201.4,418.4,213.5,418.5,226.3,418.5z M349.4,168.8c-2.6-0.2-5,0.4-7.3,1.3c-2.9,1.1-3.6,2.2-0.7,4.6   c7.9,6.5,14.1,14.5,18.1,24c1.2,2.8,2.1,2.9,3.9,0.6c4.8-6,6-12.5,2.8-19.5C363,172.6,357.3,168.9,349.4,168.8z M147.2,200.7   c4.7-11.7,12.5-21,22.3-28.9c-9.5-5.2-19.4-3.3-25,4.3C138.8,183.7,139.8,194,147.2,200.7z" fill="#060606"/><path d="M256.1,155.1c26.1,0.7,53.2,6.4,76.5,24.6c9.5,7.4,17,16.6,20.2,28.4c4.4,16.2-0.6,30.3-11.5,42.4   c-13.4,14.8-30.7,23.2-49.7,27.9c-35.3,8.6-69.7,6.4-102.4-10.3c-9.9-5-18.6-11.7-25.4-20.6c-14.3-18.4-14-39.7,0.9-57.6   c12.3-14.7,28.6-23,46.6-28.5C225,157,239.2,155.3,256.1,155.1z M234.2,205.7c0-9.6-7.5-17.1-17.1-17c-9.2,0.1-16.8,7.6-16.9,16.8   c-0.1,9.3,7.7,17.2,17,17.3C226.6,222.9,234.2,215.3,234.2,205.7z M274.5,205.2c-0.3,9.5,7.2,17.3,16.6,17.6   c9.3,0.3,17.2-7.4,17.5-16.8c0.2-9.1-7.2-16.9-16.4-17.3C282.6,188.4,274.7,195.8,274.5,205.2z M254.5,266.1c3,0,6,0.2,9,0   c10.6-0.8,20.6-3.3,29-10.4c2.6-2.2,4-4.8,1.8-7.7c-2.4-3.1-5.2-2.2-7.7,0.2c-2.7,2.6-5.9,4.6-9.4,5.5c-19.5,4.8-38.7,6.8-56.1-6.4   c-2.2-1.6-4.4-1.7-6.3,0.2c-2.1,2.1-2.1,4.5-0.1,6.7c2.4,2.6,5.3,4.5,8.4,6.2C232.9,265.4,243.6,266.4,254.5,266.1z" fill="#FDFCFC"/><path d="M301.8,319c-0.5,24.7-3.8,50-15,73.6c-4.1,8.6-9.3,16.5-16.7,22.8c-2.5,2.1-5.2,3.4-8.6,3.2   c-3.7-0.2-7.4-0.5-11,0c-8.4,1.3-13.9-2.9-18.8-8.8c-10.7-12.8-16.5-28-20.3-43.9c-6-25-7-50.3-3.8-75.9c0.5-4,2.1-3.5,4.7-2.8   c25.2,6.8,50.6,7,76.1,1.8c2.6-0.5,5.2-1.1,7.7-2c2.7-1,3.4,0,3.7,2.6C300.9,298.9,301.7,308.4,301.8,319z" fill="#FDFCFC"/><path d="M310,294.4c13.8,11.9,17.8,26.2,15.8,42.4c-1.6,13-7.5,23.7-20.3,31.2C311.1,343.3,312.3,319.6,310,294.4z" fill="#F9F9F9"/><path d="M196.5,296c0,7.5,0,14.8,0,22.2c0,14.3,1.3,28.5,4.1,42.6c0.3,1.7,1.4,3.9-0.4,5c-1.6,1-2.9-1.1-4.1-2.1   c-18.4-15.6-19.4-49-2.1-65.8C194.9,297.1,195.4,295.9,196.5,296z" fill="#F9F9F9"/><path d="M351.2,109.4c0,7.6-6.1,13.7-13.7,13.6c-7.4-0.1-13.7-6.6-13.5-13.9c0.2-7.3,6.2-13.1,13.6-13.1   C345.4,95.9,351.2,101.7,351.2,109.4z" fill="#F9F9F9"/><path d="M280.9,418.5c4.4-5.3,7.8-9.8,10.7-14.6c0.4-0.7,1.1-1.4,1.8-1.6c10.3-2.6,23,1.6,26.8,11   c1.4,3.4,1.7,5.5-3.3,5.3C305.3,418.3,293.7,418.5,280.9,418.5z" fill="#F9F9F9"/><path d="M226.3,418.5c-12.8,0-24.9-0.1-37,0c-3.1,0-2.7-1.9-2.2-3.6c2.1-7.1,7.6-10.6,14.3-12.5   c2.2-0.6,4.6-0.8,6.9-0.8c4.2-0.1,7.5,0.9,9.7,5.2C220,410.7,223.1,414.1,226.3,418.5z" fill="#F9F9F9"/><path d="M349.4,168.8c7.9,0.1,13.6,3.7,16.8,10.9c3.1,7,2,13.6-2.8,19.5c-1.8,2.3-2.7,2.2-3.9-0.6   c-4-9.5-10.2-17.4-18.1-24c-2.9-2.4-2.2-3.4,0.7-4.6C344.4,169.2,346.8,168.6,349.4,168.8z" fill="#F9F9F9"/><path d="M147.2,200.7c-7.3-6.8-8.4-17.1-2.8-24.6c5.7-7.7,15.6-9.5,25-4.3C159.7,179.7,151.9,189.1,147.2,200.7z" fill="#F9F9F9"/><path d="M234.2,205.7c0,9.5-7.6,17.2-17,17.1c-9.3-0.1-17.1-8-17-17.3c0.1-9.2,7.7-16.7,16.9-16.8   C226.7,188.7,234.2,196.1,234.2,205.7z" fill="#FE4704"/><path d="M274.5,205.2c0.3-9.5,8.1-16.8,17.6-16.5c9.3,0.4,16.7,8.1,16.4,17.3c-0.2,9.4-8.1,17.1-17.5,16.8   C281.6,222.6,274.2,214.7,274.5,205.2z" fill="#FE4704"/><path d="M254.5,266.1c-10.9,0.4-21.6-0.6-31.5-5.8c-3.1-1.6-6-3.6-8.4-6.2c-2-2.1-2-4.6,0.1-6.7   c1.9-1.9,4.2-1.9,6.3-0.2c17.4,13.3,36.7,11.2,56.1,6.4c3.5-0.9,6.7-2.9,9.4-5.5c2.5-2.4,5.3-3.3,7.7-0.2c2.2,2.9,0.9,5.5-1.8,7.7   c-8.4,7.1-18.4,9.6-29,10.4C260.5,266.2,257.5,266.1,254.5,266.1z" fill="#060606"/></g></svg>