<svg width="550" height="550" xmlns="http://www.w3.org/2000/svg">

 <g>
  <title>background</title>
  <rect fill="none" id="canvas_background" height="402" width="582" y="-1" x="-1"/>
 </g>
 <g>
  <title>Layer 1</title>
  <circle id="svg_2" r="256" fill="#6955ed" cy="275" cx="281"/>
  <path id="svg_4" stroke="#000000" fill="#FFFFFF" d="m342.9,192.4c0,10.3 8.4,18.7 18.7,18.7c10.3,0 18.7,-8.4 18.7,-18.7c0,-10.3 -8.3,-18.7 -18.7,-18.7c-10.3,0 -18.7,8.4 -18.7,18.7z"/>
  <polyline id="svg_5" stroke="#000000" points="276.1000061035156,235.9772299528122 293.70001220703125,178.4772299528122 343.20001220703125,190.17722690105438 " fill="none"/>
  <path id="svg_7" stroke="#000000" fill="#FFFFFF" d="m196.5,256.7c-4.5,-5.1 -11,-8.3 -18.2,-8.3c-13.4,0 -24.3,10.9 -24.3,24.3c0,9.6 5.6,17.9 13.7,21.9c3.4,-14.6 13.8,-27.7 28.8,-37.9z"/>
  <path id="svg_8" stroke="#000000" fill="#FFFFFF" d="m382.4,294.6c-3.5,-14.6 -13.8,-27.8 -28.8,-37.9c-19.8,-13.4 -47.6,-21.8 -78.5,-21.9c-30.9,0 -58.7,8.4 -78.5,21.9c-15,10.2 -25.3,23.4 -28.8,37.9c-0.8,3.6 -1.3,7.2 -1.3,10.9c0,39 48.6,70.7 108.6,70.7c60,0 108.6,-31.7 108.6,-70.7c-0.1,-3.7 -0.5,-7.3 -1.3,-10.9z"/>
  <path id="svg_9" stroke="#000000" fill="#FFFFFF" d="m353.5,256.7c4.5,-5.1 11,-8.3 18.2,-8.3c13.4,0 24.3,10.9 24.3,24.3c0,9.6 -5.6,17.9 -13.7,21.9c-3.4,-14.6 -13.8,-27.7 -28.8,-37.9z"/>
  <path id="svg_10" fill="#F15A25" d="m255.8,291.4c0,10 -8.1,18.1 -18.1,18.1s-18.1,-8.1 -18.1,-18.1c0,-10 8.1,-18.1 18.1,-18.1s18.1,8.1 18.1,18.1z"/>
  <path id="svg_11" fill="#F15A25" d="m331.6,291.4c0,10 -8.1,18.1 -18.1,18.1c-10,0 -18.1,-8.1 -18.1,-18.1c0,-10 8.1,-18.1 18.1,-18.1c10,0 18.1,8.1 18.1,18.1z"/>
  <path id="svg_13" stroke="#000000" fill="none" d="m237.7,337.8c22.7,16 53.1,16 75.8,0"/>
 </g>
</svg>